<?xml version="1.0" encoding="utf-8"?>
<svg
	version="1.1"
	xmlns="http://www.w3.org/2000/svg"
	xmlns:xlink="http://www.w3.org/1999/xlink"
	x="0%" y="0%"
	width="100%" height="100%"
	viewBox="0 0 24.0 24.0"
	enable-background="new 0 0 24.0 24.0"
	xml:space="preserve">
	<path
		fill="#FFFFFF"
		stroke="#000000"
		fill-opacity="1.000"
		stroke-opacity="1.000"
		fill-rule="nonzero"
		stroke-width="0.96"
		stroke-linejoin="miter"
		stroke-linecap="square"
		d="M12.00,0.48C18.36,0.48,23.52,5.64,23.52,12.00C23.52,18.36,18.36,23.52,12.00,23.52C5.64,23.52,0.48,18.36,0.48,12.00C0.48,5.64,5.64,0.48,12.00,0.48z"/>
	<path
		fill="#FFFFFF"
		stroke="#000000"
		fill-opacity="1.000"
		stroke-opacity="1.000"
		fill-rule="nonzero"
		stroke-width="0.96"
		stroke-linejoin="miter"
		stroke-linecap="square"
		d="M12.00,3.98C14.74,3.98,16.96,6.19,16.96,8.93C16.96,11.67,14.74,13.89,12.00,13.89C9.26,13.89,7.04,11.67,7.04,8.93C7.04,6.19,9.26,3.98,12.00,3.98z"/>
	<path
		fill="#FFFFFF"
		stroke="#000000"
		fill-opacity="1.000"
		stroke-opacity="1.000"
		fill-rule="nonzero"
		stroke-width="0.96"
		stroke-linejoin="miter"
		stroke-linecap="square"
		d="M3.67,19.50C7.04,12.13,16.96,12.13,20.26,19.50"/>
	<path
		fill="#5B5B5B"
		stroke="#5B5B5B"
		fill-opacity="1.000"
		stroke-opacity="1.000"
		fill-rule="nonzero"
		stroke-width="0.47075012"
		stroke-linejoin="miter"
		stroke-linecap="square"
		d="M20.26,16.56C21.89,16.56,23.21,17.88,23.21,19.50C23.21,21.13,21.89,22.44,20.26,22.44C18.64,22.44,17.32,21.13,17.32,19.50C17.32,17.88,18.64,16.56,20.26,16.56z"/>
	<path
		fill="#9A9A9A"
		stroke="#C0C0C0"
		fill-opacity="1.000"
		stroke-opacity="1.000"
		fill-rule="nonzero"
		stroke-width="0.15026677"
		stroke-linejoin="miter"
		stroke-linecap="square"
		d="M20.26,17.61C21.34,17.61,22.21,18.46,22.21,19.50C22.21,20.54,21.34,21.39,20.26,21.39C19.19,21.39,18.32,20.54,18.32,19.50C18.32,18.46,19.19,17.61,20.26,17.61z"/>
</svg>